<svg xmlns="http://www.w3.org/2000/svg" version="1.1" width="1280" height="720" viewBox="0 0 1280 720" font-family="Arial, &quot;Microsoft YaHei&quot;, sans-serif"><rect x="0" y="0" width="1280" height="720" fill="#FFFFFF" />
<g id="shape-2" data-pptx-object="shape" data-pptx-frame="1199.12 678.1 17.44 21.56" data-pptx-prst="rect" data-pptx-source-ref="slide:2" data-pptx-semantic-object="shape">
<path d="M 1199.12 678.1 L 1216.56 678.1 L 1216.56 699.66 L 1199.12 699.66 Z" fill="none" stroke="none" data-pptx-part="geometry" />


<text x="1216.56" y="690" text-anchor="end" xml:space="preserve" font-size="14" fill="#DCE1EA">17</text>
</g>
<g id="shape-3" data-pptx-object="shape" data-pptx-frame="64 48 120 24" data-pptx-prst="roundRect" data-pptx-av-adj="val 50000" data-pptx-source-ref="slide:3" data-pptx-semantic-object="shape">
<path d="M 64 60 A 12 12 0 0 1 76 48 L 172 48 A 12 12 0 0 1 184 60 L 184 60 A 12 12 0 0 1 172 72 L 76 72 A 12 12 0 0 1 64 60 Z" fill="#3458B0" stroke="none" data-pptx-part="geometry" />

</g>
<g id="shape-4" data-pptx-object="shape" data-pptx-frame="102.9 53.1 42.2 16.93" data-pptx-prst="rect" data-pptx-source-ref="slide:4" data-pptx-semantic-object="shape">
<path d="M 102.9 53.1 L 145.1 53.1 L 145.1 70.03 L 102.9 70.03 Z" fill="none" stroke="none" data-pptx-part="geometry" />


<text x="124" y="65" text-anchor="middle" xml:space="preserve" font-size="14" fill="#FFFFFF" font-weight="bold">体验四</text>
</g>
<g id="shape-5" data-pptx-object="shape" data-pptx-frame="62.56 89.4 287.04 55.44" data-pptx-prst="rect" data-pptx-source-ref="slide:5" data-pptx-semantic-object="shape">
<path d="M 62.56 89.4 L 349.6 89.4 L 349.6 144.84 L 62.56 144.84 Z" fill="none" stroke="none" data-pptx-part="geometry" />


<text x="62.56" y="120" text-anchor="start" xml:space="preserve" font-size="36" fill="#1A1D26" font-weight="bold">DAG 可视化演进</text>
</g>
<g id="shape-6" data-pptx-object="shape" data-pptx-frame="64 136 48 3" data-pptx-prst="roundRect" data-pptx-av-adj="val 50000" data-pptx-source-ref="slide:6" data-pptx-semantic-object="shape">
<path d="M 64 137.5 A 1.5 1.5 0 0 1 65.5 136 L 110.5 136 A 1.5 1.5 0 0 1 112 137.5 L 112 137.5 A 1.5 1.5 0 0 1 110.5 139 L 65.5 139 A 1.5 1.5 0 0 1 64 137.5 Z" fill="#3458B0" stroke="none" data-pptx-part="geometry" />

</g>
<g id="shape-31" data-pptx-object="group" data-pptx-frame="140 220 1000 83.97" data-pptx-source-ref="slide:31">
<g id="shape-7" data-pptx-object="shape" data-pptx-frame="140 220 160 80" data-pptx-prst="roundRect" data-pptx-av-adj="val 10000" data-pptx-source-ref="slide:7" data-pptx-semantic-object="shape">
<path d="M 140 228 A 8 8 0 0 1 148 220 L 292 220 A 8 8 0 0 1 300 228 L 300 292 A 8 8 0 0 1 292 300 L 148 300 A 8 8 0 0 1 140 292 Z" fill="#F4F6FA" stroke="none" data-pptx-part="geometry" />

</g>
<g id="shape-8" data-pptx-object="shape" data-pptx-frame="196 234.7 48.01 27.72" data-pptx-prst="rect" data-pptx-source-ref="slide:8" data-pptx-semantic-object="shape">
<path d="M 196 234.7 L 244 234.7 L 244 262.42 L 196 262.42 Z" fill="none" stroke="none" data-pptx-part="geometry" />


<text x="220" y="250" text-anchor="middle" xml:space="preserve" font-size="18" fill="#3458B0" font-weight="bold">V1.0</text>
</g>
<g id="shape-9" data-pptx-object="shape" data-pptx-frame="183.26 263.95 73.48 20.02" data-pptx-prst="rect" data-pptx-source-ref="slide:9" data-pptx-semantic-object="shape">
<path d="M 183.26 263.95 L 256.74 263.95 L 256.74 283.97 L 183.26 283.97 Z" fill="none" stroke="none" data-pptx-part="geometry" />


<text x="220" y="275.06" text-anchor="middle" xml:space="preserve" font-size="13.07" fill="#59606E">自定义 SVG</text>
</g>
<g id="shape-10" data-pptx-object="shape" data-pptx-frame="191.78 283.95 56.44 20.02" data-pptx-prst="rect" data-pptx-source-ref="slide:10" data-pptx-semantic-object="shape">
<path d="M 191.78 283.95 L 248.22 283.95 L 248.22 303.97 L 191.78 303.97 Z" fill="none" stroke="none" data-pptx-part="geometry" />


<text x="220" y="295.06" text-anchor="middle" xml:space="preserve" font-size="13.07" fill="#59606E">水平布局</text>
</g>
<g id="shape-11" data-pptx-object="shape" data-pptx-frame="312.04 244.6 15.91 36.96" data-pptx-prst="rect" data-pptx-source-ref="slide:11" data-pptx-semantic-object="shape">
<path d="M 312.04 244.6 L 327.96 244.6 L 327.96 281.56 L 312.04 281.56 Z" fill="none" stroke="none" data-pptx-part="geometry" />


<text x="320" y="265" text-anchor="middle" xml:space="preserve" font-size="24" fill="#3458B0">→</text>
</g>
<g id="shape-12" data-pptx-object="shape" data-pptx-frame="340 220 160 80" data-pptx-prst="roundRect" data-pptx-av-adj="val 10000" data-pptx-source-ref="slide:12" data-pptx-semantic-object="shape">
<path d="M 340 228 A 8 8 0 0 1 348 220 L 492 220 A 8 8 0 0 1 500 228 L 500 292 A 8 8 0 0 1 492 300 L 348 300 A 8 8 0 0 1 340 292 Z" fill="#F4F6FA" stroke="none" data-pptx-part="geometry" />

</g>
<g id="shape-13" data-pptx-object="shape" data-pptx-frame="396 234.7 48.01 27.72" data-pptx-prst="rect" data-pptx-source-ref="slide:13" data-pptx-semantic-object="shape">
<path d="M 396 234.7 L 444 234.7 L 444 262.42 L 396 262.42 Z" fill="none" stroke="none" data-pptx-part="geometry" />


<text x="420" y="250" text-anchor="middle" xml:space="preserve" font-size="18" fill="#3458B0" font-weight="bold">V2.0</text>
</g>
<g id="shape-14" data-pptx-object="shape" data-pptx-frame="376.55 263.95 86.9 20.02" data-pptx-prst="rect" data-pptx-source-ref="slide:14" data-pptx-semantic-object="shape">
<path d="M 376.55 263.95 L 463.45 263.95 L 463.45 283.97 L 376.55 283.97 Z" fill="none" stroke="none" data-pptx-part="geometry" />


<text x="420" y="275.06" text-anchor="middle" xml:space="preserve" font-size="13.07" fill="#59606E">VueFlow 框架</text>
</g>
<g id="shape-15" data-pptx-object="shape" data-pptx-frame="391.78 283.95 56.44 20.02" data-pptx-prst="rect" data-pptx-source-ref="slide:15" data-pptx-semantic-object="shape">
<path d="M 391.78 283.95 L 448.22 283.95 L 448.22 303.97 L 391.78 303.97 Z" fill="none" stroke="none" data-pptx-part="geometry" />


<text x="420" y="295.06" text-anchor="middle" xml:space="preserve" font-size="13.07" fill="#59606E">节点拖拽</text>
</g>
<g id="shape-16" data-pptx-object="shape" data-pptx-frame="512.04 244.6 15.91 36.96" data-pptx-prst="rect" data-pptx-source-ref="slide:16" data-pptx-semantic-object="shape">
<path d="M 512.04 244.6 L 527.96 244.6 L 527.96 281.56 L 512.04 281.56 Z" fill="none" stroke="none" data-pptx-part="geometry" />


<text x="520" y="265" text-anchor="middle" xml:space="preserve" font-size="24" fill="#3458B0">→</text>
</g>
<g id="shape-17" data-pptx-object="shape" data-pptx-frame="540 220 160 80" data-pptx-prst="roundRect" data-pptx-av-adj="val 10000" data-pptx-source-ref="slide:17" data-pptx-semantic-object="shape">
<path d="M 540 228 A 8 8 0 0 1 548 220 L 692 220 A 8 8 0 0 1 700 228 L 700 292 A 8 8 0 0 1 692 300 L 548 300 A 8 8 0 0 1 540 292 Z" fill="#F4F6FA" stroke="none" data-pptx-part="geometry" />

</g>
<g id="shape-18" data-pptx-object="shape" data-pptx-frame="596 234.7 48.01 27.72" data-pptx-prst="rect" data-pptx-source-ref="slide:18" data-pptx-semantic-object="shape">
<path d="M 596 234.7 L 644 234.7 L 644 262.42 L 596 262.42 Z" fill="none" stroke="none" data-pptx-part="geometry" />


<text x="620" y="250" text-anchor="middle" xml:space="preserve" font-size="18" fill="#3458B0" font-weight="bold">V2.1</text>
</g>
<g id="shape-19" data-pptx-object="shape" data-pptx-frame="591.78 263.95 56.44 20.02" data-pptx-prst="rect" data-pptx-source-ref="slide:19" data-pptx-semantic-object="shape">
<path d="M 591.78 263.95 L 648.22 263.95 L 648.22 283.97 L 591.78 283.97 Z" fill="none" stroke="none" data-pptx-part="geometry" />


<text x="620" y="275.06" text-anchor="middle" xml:space="preserve" font-size="13.07" fill="#59606E">拓扑排序</text>
</g>
<g id="shape-20" data-pptx-object="shape" data-pptx-frame="590.58 283.95 58.85 20.02" data-pptx-prst="rect" data-pptx-source-ref="slide:20" data-pptx-semantic-object="shape">
<path d="M 590.58 283.95 L 649.42 283.95 L 649.42 303.97 L 590.58 303.97 Z" fill="none" stroke="none" data-pptx-part="geometry" />


<text x="620" y="295.06" text-anchor="middle" xml:space="preserve" font-size="13.07" fill="#59606E">DFS 布局</text>
</g>
<g id="shape-21" data-pptx-object="shape" data-pptx-frame="712.04 244.6 15.91 36.96" data-pptx-prst="rect" data-pptx-source-ref="slide:21" data-pptx-semantic-object="shape">
<path d="M 712.04 244.6 L 727.96 244.6 L 727.96 281.56 L 712.04 281.56 Z" fill="none" stroke="none" data-pptx-part="geometry" />


<text x="720" y="265" text-anchor="middle" xml:space="preserve" font-size="24" fill="#3458B0">→</text>
</g>
<g id="shape-22" data-pptx-object="shape" data-pptx-frame="740 220 160 80" data-pptx-prst="roundRect" data-pptx-av-adj="val 10000" data-pptx-source-ref="slide:22" data-pptx-semantic-object="shape">
<path d="M 740 228 A 8 8 0 0 1 748 220 L 892 220 A 8 8 0 0 1 900 228 L 900 292 A 8 8 0 0 1 892 300 L 748 300 A 8 8 0 0 1 740 292 Z" fill="#F4F6FA" stroke="none" data-pptx-part="geometry" />

</g>
<g id="shape-23" data-pptx-object="shape" data-pptx-frame="796 234.7 48.01 27.72" data-pptx-prst="rect" data-pptx-source-ref="slide:23" data-pptx-semantic-object="shape">
<path d="M 796 234.7 L 844 234.7 L 844 262.42 L 796 262.42 Z" fill="none" stroke="none" data-pptx-part="geometry" />


<text x="820" y="250" text-anchor="middle" xml:space="preserve" font-size="18" fill="#3458B0" font-weight="bold">V2.2</text>
</g>
<g id="shape-24" data-pptx-object="shape" data-pptx-frame="789.14 263.95 61.72 20.02" data-pptx-prst="rect" data-pptx-source-ref="slide:24" data-pptx-semantic-object="shape">
<path d="M 789.14 263.95 L 850.86 263.95 L 850.86 283.97 L 789.14 283.97 Z" fill="none" stroke="none" data-pptx-part="geometry" />


<text x="820" y="275.06" text-anchor="middle" xml:space="preserve" font-size="13.07" fill="#59606E">Sugiyama</text>
</g>
<g id="shape-25" data-pptx-object="shape" data-pptx-frame="805.63 283.95 28.74 20.02" data-pptx-prst="rect" data-pptx-source-ref="slide:25" data-pptx-semantic-object="shape">
<path d="M 805.63 283.95 L 834.37 283.95 L 834.37 303.97 L 805.63 303.97 Z" fill="none" stroke="none" data-pptx-part="geometry" />


<text x="820" y="295.06" text-anchor="middle" xml:space="preserve" font-size="13.07" fill="#59606E">布局</text>
</g>
<g id="shape-26" data-pptx-object="shape" data-pptx-frame="912.04 244.6 15.91 36.96" data-pptx-prst="rect" data-pptx-source-ref="slide:26" data-pptx-semantic-object="shape">
<path d="M 912.04 244.6 L 927.96 244.6 L 927.96 281.56 L 912.04 281.56 Z" fill="none" stroke="none" data-pptx-part="geometry" />


<text x="920" y="265" text-anchor="middle" xml:space="preserve" font-size="24" fill="#3458B0">→</text>
</g>
<g id="shape-27" data-pptx-object="shape" data-pptx-frame="940 220 200 80" data-pptx-prst="roundRect" data-pptx-av-adj="val 10000" data-pptx-source-ref="slide:27" data-pptx-semantic-object="shape">
<path d="M 940 228 A 8 8 0 0 1 948 220 L 1132 220 A 8 8 0 0 1 1140 228 L 1140 292 A 8 8 0 0 1 1132 300 L 948 300 A 8 8 0 0 1 940 292 Z" fill="#3458B0" stroke="none" data-pptx-part="geometry" />

</g>
<g id="shape-28" data-pptx-object="shape" data-pptx-frame="1016 234.7 48.01 27.72" data-pptx-prst="rect" data-pptx-source-ref="slide:28" data-pptx-semantic-object="shape">
<path d="M 1016 234.7 L 1064 234.7 L 1064 262.42 L 1016 262.42 Z" fill="none" stroke="none" data-pptx-part="geometry" />


<text x="1040" y="250" text-anchor="middle" xml:space="preserve" font-size="18" fill="#FFFFFF" font-weight="bold">V3.0</text>
</g>
<g id="shape-29" data-pptx-object="shape" data-pptx-frame="1010.58 263.95 58.85 20.02" data-pptx-prst="rect" data-pptx-source-ref="slide:29" data-pptx-semantic-object="shape">
<path d="M 1010.58 263.95 L 1069.42 263.95 L 1069.42 283.97 L 1010.58 283.97 Z" fill="none" stroke="none" data-pptx-part="geometry" />


<text x="1040" y="275.06" text-anchor="middle" xml:space="preserve" font-size="13.07" fill="#FFFFFF">ELK 布局</text>
</g>
<g id="shape-30" data-pptx-object="shape" data-pptx-frame="997.93 283.95 84.14 20.02" data-pptx-prst="rect" data-pptx-source-ref="slide:30" data-pptx-semantic-object="shape">
<path d="M 997.93 283.95 L 1082.07 283.95 L 1082.07 303.97 L 997.93 303.97 Z" fill="none" stroke="none" data-pptx-part="geometry" />


<text x="1040" y="295.06" text-anchor="middle" xml:space="preserve" font-size="13.07" fill="#FFFFFF">实时执行状态</text>
</g>
</g>
<g id="shape-32" data-pptx-object="shape" data-pptx-frame="140 340 1000 80" data-pptx-prst="roundRect" data-pptx-av-adj="val 10000" data-pptx-source-ref="slide:32" data-pptx-semantic-object="shape">
<path d="M 140 348 A 8 8 0 0 1 148 340 L 1132 340 A 8 8 0 0 1 1140 348 L 1140 412 A 8 8 0 0 1 1132 420 L 148 420 A 8 8 0 0 1 140 412 Z" fill="#F4F6FA" stroke="none" data-pptx-part="geometry" />

</g>
<g id="shape-33" data-pptx-object="shape" data-pptx-frame="555.54 358 168.92 30.8" data-pptx-prst="rect" data-pptx-source-ref="slide:33" data-pptx-semantic-object="shape">
<path d="M 555.54 358 L 724.46 358 L 724.46 388.8 L 555.54 388.8 Z" fill="none" stroke="none" data-pptx-part="geometry" />


<text x="640" y="375" text-anchor="middle" xml:space="preserve" font-size="20" fill="#3458B0" font-weight="bold">3 轮深色模式优化</text>
</g>
<g id="shape-34" data-pptx-object="shape" data-pptx-frame="546.08 391.4 187.84 24.64" data-pptx-prst="rect" data-pptx-source-ref="slide:34" data-pptx-semantic-object="shape">
<path d="M 546.08 391.4 L 733.92 391.4 L 733.92 416.04 L 546.08 416.04 Z" fill="none" stroke="none" data-pptx-part="geometry" />


<text x="640" y="405" text-anchor="middle" xml:space="preserve" font-size="16" fill="#59606E">持续追求视觉体验的完美</text>
</g></svg>
