<svg xmlns="http://www.w3.org/2000/svg" version="1.1" width="1280" height="720" viewBox="0 0 1280 720" font-family="Arial, &quot;Microsoft YaHei&quot;, sans-serif"><rect x="0" y="0" width="1280" height="720" fill="#FFFFFF" />
<g id="shape-2" data-pptx-object="shape" data-pptx-frame="1199.12 678.1 17.44 21.56" data-pptx-prst="rect" data-pptx-source-ref="slide:2" data-pptx-semantic-object="shape">
<path d="M 1199.12 678.1 L 1216.56 678.1 L 1216.56 699.66 L 1199.12 699.66 Z" fill="none" stroke="none" data-pptx-part="geometry" />


<text x="1216.56" y="690" text-anchor="end" xml:space="preserve" font-size="14" fill="#DCE1EA">13</text>
</g>
<g id="shape-3" data-pptx-object="shape" data-pptx-frame="64 48 120 24" data-pptx-prst="roundRect" data-pptx-av-adj="val 50000" data-pptx-source-ref="slide:3" data-pptx-semantic-object="shape">
<path d="M 64 60 A 12 12 0 0 1 76 48 L 172 48 A 12 12 0 0 1 184 60 L 184 60 A 12 12 0 0 1 172 72 L 76 72 A 12 12 0 0 1 64 60 Z" fill="#3458B0" stroke="none" data-pptx-part="geometry" />

</g>
<g id="shape-4" data-pptx-object="shape" data-pptx-frame="102.9 53.1 42.2 16.93" data-pptx-prst="rect" data-pptx-source-ref="slide:4" data-pptx-semantic-object="shape">
<path d="M 102.9 53.1 L 145.1 53.1 L 145.1 70.03 L 102.9 70.03 Z" fill="none" stroke="none" data-pptx-part="geometry" />


<text x="124" y="65" text-anchor="middle" xml:space="preserve" font-size="14" fill="#FFFFFF" font-weight="bold">体验三</text>
</g>
<g id="shape-5" data-pptx-object="shape" data-pptx-frame="62.56 89.4 193.68 55.44" data-pptx-prst="rect" data-pptx-source-ref="slide:5" data-pptx-semantic-object="shape">
<path d="M 62.56 89.4 L 256.24 89.4 L 256.24 144.84 L 62.56 144.84 Z" fill="none" stroke="none" data-pptx-part="geometry" />


<text x="62.56" y="120" text-anchor="start" xml:space="preserve" font-size="36" fill="#1A1D26" font-weight="bold">流水线模型</text>
</g>
<g id="shape-6" data-pptx-object="shape" data-pptx-frame="64 136 48 3" data-pptx-prst="roundRect" data-pptx-av-adj="val 50000" data-pptx-source-ref="slide:6" data-pptx-semantic-object="shape">
<path d="M 64 137.5 A 1.5 1.5 0 0 1 65.5 136 L 110.5 136 A 1.5 1.5 0 0 1 112 137.5 L 112 137.5 A 1.5 1.5 0 0 1 110.5 139 L 65.5 139 A 1.5 1.5 0 0 1 64 137.5 Z" fill="#3458B0" stroke="none" data-pptx-part="geometry" />

</g>
<g id="shape-26" data-pptx-object="group" data-pptx-frame="140 260 980 100" data-pptx-source-ref="slide:26">
<g id="shape-7" data-pptx-object="shape" data-pptx-frame="140 260 200 100" data-pptx-prst="roundRect" data-pptx-av-adj="val 8000" data-pptx-source-ref="slide:7" data-pptx-semantic-object="shape">
<path d="M 140 268 A 8 8 0 0 1 148 260 L 332 260 A 8 8 0 0 1 340 268 L 340 352 A 8 8 0 0 1 332 360 L 148 360 A 8 8 0 0 1 140 352 Z" fill="#F4F6FA" stroke="none" data-pptx-part="geometry" />

</g>
<g id="shape-8" data-pptx-object="shape" data-pptx-frame="207.4 278 65.2 30.8" data-pptx-prst="rect" data-pptx-source-ref="slide:8" data-pptx-semantic-object="shape">
<path d="M 207.4 278 L 272.6 278 L 272.6 308.8 L 207.4 308.8 Z" fill="none" stroke="none" data-pptx-part="geometry" />


<text x="240" y="295" text-anchor="middle" xml:space="preserve" font-size="20" fill="#1A1D26" font-weight="bold">架构师</text>
</g>
<g id="shape-9" data-pptx-object="shape" data-pptx-frame="209.76 313.1 60.48 21.56" data-pptx-prst="rect" data-pptx-source-ref="slide:9" data-pptx-semantic-object="shape">
<path d="M 209.76 313.1 L 270.24 313.1 L 270.24 334.66 L 209.76 334.66 Z" fill="none" stroke="none" data-pptx-part="geometry" />


<text x="240" y="325" text-anchor="middle" xml:space="preserve" font-size="14" fill="#59606E">代入角色</text>
</g>
<g id="shape-10" data-pptx-object="shape" data-pptx-frame="193.44 333.1 93.13 21.56" data-pptx-prst="rect" data-pptx-source-ref="slide:10" data-pptx-semantic-object="shape">
<path d="M 193.44 333.1 L 286.56 333.1 L 286.56 354.66 L 193.44 354.66 Z" fill="none" stroke="none" data-pptx-part="geometry" />


<text x="240" y="345" text-anchor="middle" xml:space="preserve" font-size="14" fill="#59606E">review ≥90分</text>
</g>
<g id="shape-11" data-pptx-object="shape" data-pptx-frame="360.72 291.2 18.56 43.12" data-pptx-prst="rect" data-pptx-source-ref="slide:11" data-pptx-semantic-object="shape">
<path d="M 360.72 291.2 L 379.28 291.2 L 379.28 334.32 L 360.72 334.32 Z" fill="none" stroke="none" data-pptx-part="geometry" />


<text x="370" y="315" text-anchor="middle" xml:space="preserve" font-size="28" fill="#3458B0">→</text>
</g>
<g id="shape-12" data-pptx-object="shape" data-pptx-frame="400 260 200 100" data-pptx-prst="roundRect" data-pptx-av-adj="val 8000" data-pptx-source-ref="slide:12" data-pptx-semantic-object="shape">
<path d="M 400 268 A 8 8 0 0 1 408 260 L 592 260 A 8 8 0 0 1 600 268 L 600 352 A 8 8 0 0 1 592 360 L 408 360 A 8 8 0 0 1 400 352 Z" fill="#F4F6FA" stroke="none" data-pptx-part="geometry" />

</g>
<g id="shape-13" data-pptx-object="shape" data-pptx-frame="478 278 44 30.8" data-pptx-prst="rect" data-pptx-source-ref="slide:13" data-pptx-semantic-object="shape">
<path d="M 478 278 L 522 278 L 522 308.8 L 478 308.8 Z" fill="none" stroke="none" data-pptx-part="geometry" />


<text x="500" y="295" text-anchor="middle" xml:space="preserve" font-size="20" fill="#1A1D26" font-weight="bold">产品</text>
</g>
<g id="shape-14" data-pptx-object="shape" data-pptx-frame="469.76 313.1 60.48 21.56" data-pptx-prst="rect" data-pptx-source-ref="slide:14" data-pptx-semantic-object="shape">
<path d="M 469.76 313.1 L 530.24 313.1 L 530.24 334.66 L 469.76 334.66 Z" fill="none" stroke="none" data-pptx-part="geometry" />


<text x="500" y="325" text-anchor="middle" xml:space="preserve" font-size="14" fill="#59606E">代入角色</text>
</g>
<g id="shape-15" data-pptx-object="shape" data-pptx-frame="453.44 333.1 93.13 21.56" data-pptx-prst="rect" data-pptx-source-ref="slide:15" data-pptx-semantic-object="shape">
<path d="M 453.44 333.1 L 546.56 333.1 L 546.56 354.66 L 453.44 354.66 Z" fill="none" stroke="none" data-pptx-part="geometry" />


<text x="500" y="345" text-anchor="middle" xml:space="preserve" font-size="14" fill="#59606E">review ≥90分</text>
</g>
<g id="shape-16" data-pptx-object="shape" data-pptx-frame="620.72 291.2 18.56 43.12" data-pptx-prst="rect" data-pptx-source-ref="slide:16" data-pptx-semantic-object="shape">
<path d="M 620.72 291.2 L 639.28 291.2 L 639.28 334.32 L 620.72 334.32 Z" fill="none" stroke="none" data-pptx-part="geometry" />


<text x="630" y="315" text-anchor="middle" xml:space="preserve" font-size="28" fill="#3458B0">→</text>
</g>
<g id="shape-17" data-pptx-object="shape" data-pptx-frame="660 260 200 100" data-pptx-prst="roundRect" data-pptx-av-adj="val 8000" data-pptx-source-ref="slide:17" data-pptx-semantic-object="shape">
<path d="M 660 268 A 8 8 0 0 1 668 260 L 852 260 A 8 8 0 0 1 860 268 L 860 352 A 8 8 0 0 1 852 360 L 668 360 A 8 8 0 0 1 660 352 Z" fill="#F4F6FA" stroke="none" data-pptx-part="geometry" />

</g>
<g id="shape-18" data-pptx-object="shape" data-pptx-frame="738 278 44 30.8" data-pptx-prst="rect" data-pptx-source-ref="slide:18" data-pptx-semantic-object="shape">
<path d="M 738 278 L 782 278 L 782 308.8 L 738 308.8 Z" fill="none" stroke="none" data-pptx-part="geometry" />


<text x="760" y="295" text-anchor="middle" xml:space="preserve" font-size="20" fill="#1A1D26" font-weight="bold">开发</text>
</g>
<g id="shape-19" data-pptx-object="shape" data-pptx-frame="729.76 313.1 60.48 21.56" data-pptx-prst="rect" data-pptx-source-ref="slide:19" data-pptx-semantic-object="shape">
<path d="M 729.76 313.1 L 790.24 313.1 L 790.24 334.66 L 729.76 334.66 Z" fill="none" stroke="none" data-pptx-part="geometry" />


<text x="760" y="325" text-anchor="middle" xml:space="preserve" font-size="14" fill="#59606E">代入角色</text>
</g>
<g id="shape-20" data-pptx-object="shape" data-pptx-frame="713.44 333.1 93.13 21.56" data-pptx-prst="rect" data-pptx-source-ref="slide:20" data-pptx-semantic-object="shape">
<path d="M 713.44 333.1 L 806.56 333.1 L 806.56 354.66 L 713.44 354.66 Z" fill="none" stroke="none" data-pptx-part="geometry" />


<text x="760" y="345" text-anchor="middle" xml:space="preserve" font-size="14" fill="#59606E">review ≥90分</text>
</g>
<g id="shape-21" data-pptx-object="shape" data-pptx-frame="880.72 291.2 18.56 43.12" data-pptx-prst="rect" data-pptx-source-ref="slide:21" data-pptx-semantic-object="shape">
<path d="M 880.72 291.2 L 899.28 291.2 L 899.28 334.32 L 880.72 334.32 Z" fill="none" stroke="none" data-pptx-part="geometry" />


<text x="890" y="315" text-anchor="middle" xml:space="preserve" font-size="28" fill="#3458B0">→</text>
</g>
<g id="shape-22" data-pptx-object="shape" data-pptx-frame="920 260 200 100" data-pptx-prst="roundRect" data-pptx-av-adj="val 8000" data-pptx-source-ref="slide:22" data-pptx-semantic-object="shape">
<path d="M 920 268 A 8 8 0 0 1 928 260 L 1112 260 A 8 8 0 0 1 1120 268 L 1120 352 A 8 8 0 0 1 1112 360 L 928 360 A 8 8 0 0 1 920 352 Z" fill="#3458B0" stroke="none" data-pptx-part="geometry" />

</g>
<g id="shape-23" data-pptx-object="shape" data-pptx-frame="998 278 44 30.8" data-pptx-prst="rect" data-pptx-source-ref="slide:23" data-pptx-semantic-object="shape">
<path d="M 998 278 L 1042 278 L 1042 308.8 L 998 308.8 Z" fill="none" stroke="none" data-pptx-part="geometry" />


<text x="1020" y="295" text-anchor="middle" xml:space="preserve" font-size="20" fill="#FFFFFF" font-weight="bold">测试</text>
</g>
<g id="shape-24" data-pptx-object="shape" data-pptx-frame="989.76 313.1 60.48 21.56" data-pptx-prst="rect" data-pptx-source-ref="slide:24" data-pptx-semantic-object="shape">
<path d="M 989.76 313.1 L 1050.24 313.1 L 1050.24 334.66 L 989.76 334.66 Z" fill="none" stroke="none" data-pptx-part="geometry" />


<text x="1020" y="325" text-anchor="middle" xml:space="preserve" font-size="14" fill="#FFFFFF">代入角色</text>
</g>
<g id="shape-25" data-pptx-object="shape" data-pptx-frame="973.44 333.1 93.13 21.56" data-pptx-prst="rect" data-pptx-source-ref="slide:25" data-pptx-semantic-object="shape">
<path d="M 973.44 333.1 L 1066.56 333.1 L 1066.56 354.66 L 973.44 354.66 Z" fill="none" stroke="none" data-pptx-part="geometry" />


<text x="1020" y="345" text-anchor="middle" xml:space="preserve" font-size="14" fill="#FFFFFF">review ≥90分</text>
</g>
</g>
<g id="shape-33" data-pptx-object="group" data-pptx-frame="140 440 1000 220" data-pptx-source-ref="slide:33">
<g id="shape-27" data-pptx-object="shape" data-pptx-frame="140 440 1000 60" data-pptx-prst="roundRect" data-pptx-av-adj="val 13333" data-pptx-source-ref="slide:27" data-pptx-semantic-object="shape">
<path d="M 140 448 A 8 8 0 0 1 148 440 L 1132 440 A 8 8 0 0 1 1140 448 L 1140 492 A 8 8 0 0 1 1132 500 L 148 500 A 8 8 0 0 1 140 492 Z" fill="#FFFFFF" stroke-width="1" stroke="#DCE1EA" data-pptx-part="geometry" />

</g>
<g id="shape-28" data-pptx-object="shape" data-pptx-frame="179.36 461.4 391.36 24.64" data-pptx-prst="rect" data-pptx-source-ref="slide:28" data-pptx-semantic-object="shape">
<path d="M 179.36 461.4 L 570.72 461.4 L 570.72 486.04 L 179.36 486.04 Z" fill="none" stroke="none" data-pptx-part="geometry" />


<text x="179.36" y="475" text-anchor="start" xml:space="preserve" font-size="16" fill="#1A1D26">上游输出是下游输入，信息多层传输容易丢失、错乱</text>
</g>
<g id="shape-29" data-pptx-object="shape" data-pptx-frame="140 520 1000 60" data-pptx-prst="roundRect" data-pptx-av-adj="val 13333" data-pptx-source-ref="slide:29" data-pptx-semantic-object="shape">
<path d="M 140 528 A 8 8 0 0 1 148 520 L 1132 520 A 8 8 0 0 1 1140 528 L 1140 572 A 8 8 0 0 1 1132 580 L 148 580 A 8 8 0 0 1 140 572 Z" fill="#FFFFFF" stroke-width="1" stroke="#DCE1EA" data-pptx-part="geometry" />

</g>
<g id="shape-30" data-pptx-object="shape" data-pptx-frame="179.36 541.4 419.34 24.64" data-pptx-prst="rect" data-pptx-source-ref="slide:30" data-pptx-semantic-object="shape">
<path d="M 179.36 541.4 L 598.7 541.4 L 598.7 566.04 L 179.36 566.04 Z" fill="none" stroke="none" data-pptx-part="geometry" />


<text x="179.36" y="555" text-anchor="start" xml:space="preserve" font-size="16" fill="#1A1D26">每个环节必须代入具体角色 review，不能"差不多就行"</text>
</g>
<g id="shape-31" data-pptx-object="shape" data-pptx-frame="140 600 1000 60" data-pptx-prst="roundRect" data-pptx-av-adj="val 13333" data-pptx-source-ref="slide:31" data-pptx-semantic-object="shape">
<path d="M 140 608 A 8 8 0 0 1 148 600 L 1132 600 A 8 8 0 0 1 1140 608 L 1140 652 A 8 8 0 0 1 1132 660 L 148 660 A 8 8 0 0 1 140 652 Z" fill="#FFFFFF" stroke-width="1" stroke="#DCE1EA" data-pptx-part="geometry" />

</g>
<g id="shape-32" data-pptx-object="shape" data-pptx-frame="179.36 621.4 238.72 24.64" data-pptx-prst="rect" data-pptx-source-ref="slide:32" data-pptx-semantic-object="shape">
<path d="M 179.36 621.4 L 418.08 621.4 L 418.08 646.04 L 179.36 646.04 Z" fill="none" stroke="none" data-pptx-part="geometry" />


<text x="179.36" y="635" text-anchor="start" xml:space="preserve" font-size="16" fill="#1A1D26">关注信息密度，不追求文档数量</text>
</g>
</g></svg>
